<svg width="50" height="50" viewBox="0 0 50 50" fill="none" xmlns="http://www.w3.org/2000/svg">
<path d="M20.8208 0C9.34643 0 0 9.34643 0 20.8208C0 32.2951 9.34643 41.6415 20.8208 41.6415C25.8105 41.6415 30.3929 39.8696 33.9842 36.9284L46.4157 49.3598C46.6075 49.5597 46.8373 49.7192 47.0916 49.8291C47.3459 49.939 47.6195 49.9971 47.8965 49.9999C48.1735 50.0027 48.4483 49.9502 48.7048 49.8455C48.9612 49.7408 49.1942 49.586 49.3901 49.3901C49.586 49.1942 49.7408 48.9612 49.8455 48.7048C49.9502 48.4483 50.0027 48.1735 49.9999 47.8965C49.9971 47.6195 49.939 47.3459 49.8291 47.0916C49.7192 46.8373 49.5597 46.6075 49.3598 46.4157L36.9284 33.9842C39.8696 30.3929 41.6415 25.8105 41.6415 20.8208C41.6415 9.34643 32.2951 0 20.8208 0ZM20.8208 4.16415C30.0446 4.16415 37.4774 11.5969 37.4774 20.8208C37.4774 30.0446 30.0446 37.4774 20.8208 37.4774C11.5969 37.4774 4.16415 30.0446 4.16415 20.8208C4.16415 11.5969 11.5969 4.16415 20.8208 4.16415Z" fill="#EA7450"/>
</svg>
